<svg width="25" height="25" viewBox="0 0 25 25" fill="none" xmlns="http://www.w3.org/2000/svg">
<path fill-rule="evenodd" clip-rule="evenodd" d="M10.0806 1.52571C4.51326 1.52571 0 6.78061 0 13.2629C0 19.7451 4.51326 25 10.0806 25C15.648 25 20.1613 19.7451 20.1613 13.2629C20.1613 13.0648 20.157 12.8679 20.1486 12.6722C20.0859 12.6746 20.0229 12.6762 19.9597 12.6762C19.4632 12.6762 18.9813 12.6039 18.521 12.4683C18.5389 12.7304 18.5484 12.9954 18.5484 13.2629C18.5484 15.6289 17.8324 17.8 16.6391 19.4992C15.6147 16.4471 13.0649 14.2848 10.0807 14.2848C7.09723 14.2848 4.54728 16.4476 3.52233 19.4993C2.32898 17.8 1.6129 15.6289 1.6129 13.2629C1.6129 7.81776 5.40403 3.40365 10.0806 3.40365C11.5786 3.40365 12.9854 3.85712 14.2062 4.65172C14.3053 4.01293 14.4811 3.40518 14.7218 2.84162C13.3326 2.00118 11.7544 1.52571 10.0806 1.52571ZM10.0807 5.487C12.0464 5.487 13.64 7.34241 13.64 9.63109C13.64 11.9198 12.0464 13.7752 10.0807 13.7752C8.11507 13.7752 6.52152 11.9198 6.52152 9.63109C6.52152 7.34241 8.11502 5.487 10.0807 5.487ZM19.9597 0C22.7433 0 25 2.62748 25 5.86857C25 9.10973 22.7433 11.7371 19.9597 11.7371C17.176 11.7371 14.9194 9.10973 14.9194 5.86857C14.9194 2.62748 17.176 0 19.9597 0ZM19.0813 6.89129H17.4092C16.9255 6.89129 16.5308 6.43178 16.5308 5.86857C16.5308 5.30537 16.9255 4.84586 17.4092 4.84586H19.0813V2.89896C19.0813 2.33575 19.476 1.87624 19.9597 1.87624C20.4433 1.87624 20.8381 2.33575 20.8381 2.89896V4.84591H22.5102C22.994 4.84591 23.3886 5.30542 23.3886 5.86863C23.3886 6.43184 22.994 6.89135 22.5102 6.89135H20.8381V8.8383C20.8381 9.40151 20.4434 9.86102 19.9597 9.86102C19.476 9.86102 19.0813 9.40151 19.0813 8.8383V6.89129Z"/>
</svg>
