<svg width="25" height="25" viewBox="0 0 25 25" fill="none" xmlns="http://www.w3.org/2000/svg">
<path d="M18.2018 14.4737C17.8384 14.4737 17.5439 14.1792 17.5439 13.8158V1.31579H7.45617V13.8158C7.45617 14.1792 7.1617 14.4737 6.79828 14.4737C6.43485 14.4737 6.14038 14.1792 6.14038 13.8158V0.657895C6.14038 0.294469 6.43485 0 6.79828 0H18.2018C18.5652 0 18.8597 0.294469 18.8597 0.657895V13.8158C18.8597 14.1792 18.5652 14.4737 18.2018 14.4737Z"/>
<path d="M0.657895 15.7895C0.294469 15.7895 0 15.4951 0 15.1316V8.91398C0 8.63321 0.17818 8.38351 0.443522 8.29206L6.58387 6.17639C6.92845 6.05753 7.30195 6.24064 7.42016 6.58393C7.53859 6.92744 7.35613 7.30201 7.01262 7.42022L1.31579 9.3832V15.1316C1.31579 15.4951 1.02132 15.7895 0.657895 15.7895Z"/>
<path d="M24.3421 15.7895C23.9786 15.7895 23.6842 15.495 23.6842 15.1316V9.38316L17.9874 7.42018C17.6438 7.30197 17.4614 6.9274 17.5798 6.58389C17.698 6.2406 18.0717 6.05728 18.4161 6.17635L24.5564 8.29202C24.8218 8.38347 25 8.63317 25 8.91394V15.1316C25 15.495 24.7055 15.7895 24.3421 15.7895Z" />
<path d="M9.42987 8.33336C9.06644 8.33336 8.77197 8.03889 8.77197 7.67547V6.35968C8.77197 5.99625 9.06644 5.70178 9.42987 5.70178C9.79329 5.70178 10.0878 5.99625 10.0878 6.35968V7.67547C10.0878 8.03889 9.79329 8.33336 9.42987 8.33336Z"/>
<path d="M3.72796 12.7193C3.36454 12.7193 3.07007 12.4249 3.07007 12.0615V10.7457C3.07007 10.3822 3.36454 10.0878 3.72796 10.0878C4.09139 10.0878 4.38586 10.3822 4.38586 10.7457V12.0615C4.38586 12.4249 4.09139 12.7193 3.72796 12.7193Z"/>
<path d="M21.2719 12.7193C20.9085 12.7193 20.614 12.4249 20.614 12.0615V10.7457C20.614 10.3822 20.9085 10.0878 21.2719 10.0878C21.6353 10.0878 21.9298 10.3822 21.9298 10.7457V12.0615C21.9298 12.4249 21.6353 12.7193 21.2719 12.7193Z"/>
<path d="M12.4999 8.33336C12.1365 8.33336 11.842 8.03889 11.842 7.67547V6.35968C11.842 5.99625 12.1365 5.70178 12.4999 5.70178C12.8634 5.70178 13.1578 5.99625 13.1578 6.35968V7.67547C13.1578 8.03889 12.8634 8.33336 12.4999 8.33336Z"/>
<path d="M15.5702 8.33336C15.2068 8.33336 14.9124 8.03889 14.9124 7.67547V6.35968C14.9124 5.99625 15.2068 5.70178 15.5702 5.70178C15.9337 5.70178 16.2281 5.99625 16.2281 6.35968V7.67547C16.2281 8.03889 15.9337 8.33336 15.5702 8.33336Z"/>
<path d="M9.42987 4.82457C9.06644 4.82457 8.77197 4.5301 8.77197 4.16668V2.85089C8.77197 2.48746 9.06644 2.19299 9.42987 2.19299C9.79329 2.19299 10.0878 2.48746 10.0878 2.85089V4.16668C10.0878 4.5301 9.79329 4.82457 9.42987 4.82457Z"/>
<path d="M12.4999 4.82457C12.1365 4.82457 11.842 4.5301 11.842 4.16668V2.85089C11.842 2.48746 12.1365 2.19299 12.4999 2.19299C12.8634 2.19299 13.1578 2.48746 13.1578 2.85089V4.16668C13.1578 4.5301 12.8634 4.82457 12.4999 4.82457Z"/>
<path d="M15.5702 4.82457C15.2068 4.82457 14.9124 4.5301 14.9124 4.16668V2.85089C14.9124 2.48746 15.2068 2.19299 15.5702 2.19299C15.9337 2.19299 16.2281 2.48746 16.2281 2.85089V4.16668C16.2281 4.5301 15.9337 4.82457 15.5702 4.82457Z"/>
<path d="M9.42987 11.8422C9.06644 11.8422 8.77197 11.5477 8.77197 11.1843V9.86847C8.77197 9.50504 9.06644 9.21057 9.42987 9.21057C9.79329 9.21057 10.0878 9.50504 10.0878 9.86847V11.1843C10.0878 11.5477 9.79329 11.8422 9.42987 11.8422Z"/>
<path d="M12.4999 11.8422C12.1365 11.8422 11.842 11.5477 11.842 11.1843V9.86847C11.842 9.50504 12.1365 9.21057 12.4999 9.21057C12.8634 9.21057 13.1578 9.50504 13.1578 9.86847V11.1843C13.1578 11.5477 12.8634 11.8422 12.4999 11.8422Z"/>
<path d="M15.5702 11.8422C15.2068 11.8422 14.9124 11.5477 14.9124 11.1843V9.86847C14.9124 9.50504 15.2068 9.21057 15.5702 9.21057C15.9337 9.21057 16.2281 9.50504 16.2281 9.86847V11.1843C16.2281 11.5477 15.9337 11.8422 15.5702 11.8422Z"/>
<path d="M4.38605 21.272C2.71519 21.272 1.35571 19.9125 1.35571 18.2416C1.35571 16.5708 2.71519 15.2113 4.38605 15.2113C6.05692 15.2113 7.4164 16.5708 7.4164 18.2416C7.4164 19.9125 6.05692 21.272 4.38605 21.272ZM4.38605 16.5271C3.44055 16.5271 2.6715 17.2961 2.6715 18.2416C2.6715 19.1872 3.44055 19.9562 4.38605 19.9562C5.33156 19.9562 6.10061 19.1872 6.10061 18.2416C6.10061 17.2961 5.33156 16.5271 4.38605 16.5271Z"/>
<path d="M5.04386 25H0.657895C0.294469 25 0 24.7056 0 24.3421C0 21.9237 1.96747 19.9562 4.38597 19.9562C6.19025 19.9562 7.83499 21.0867 8.47853 22.7696C8.60831 23.1088 8.43848 23.4891 8.09904 23.6189C7.75918 23.7489 7.37968 23.5789 7.24969 23.2394C6.79953 22.0626 5.64864 21.272 4.38597 21.272C2.91877 21.272 1.68864 22.3064 1.38668 23.6842H5.04386C5.40729 23.6842 5.70175 23.9787 5.70175 24.3421C5.70175 24.7056 5.40729 25 5.04386 25Z"/>
<path d="M20.6141 21.272C18.9432 21.272 17.5837 19.9125 17.5837 18.2416C17.5837 16.5708 18.9432 15.2113 20.6141 15.2113C22.2849 15.2113 23.6444 16.5708 23.6444 18.2416C23.6444 19.9125 22.2849 21.272 20.6141 21.272ZM20.6141 16.5271C19.6686 16.5271 18.8995 17.2961 18.8995 18.2416C18.8995 19.1872 19.6686 19.9562 20.6141 19.9562C21.5596 19.9562 22.3286 19.1872 22.3286 18.2416C22.3286 17.2961 21.5596 16.5271 20.6141 16.5271Z"/>
<path d="M24.342 25H19.956C19.5926 25 19.2981 24.7056 19.2981 24.3421C19.2981 23.9787 19.5926 23.6842 19.956 23.6842H23.6132C23.3113 22.3064 22.0811 21.272 20.6139 21.272C19.3513 21.272 18.2004 22.0626 17.7502 23.2394C17.6206 23.5789 17.2414 23.7487 16.9009 23.6189C16.5614 23.4891 16.3916 23.1088 16.5214 22.7696C17.1649 21.0867 18.8097 19.9562 20.6139 19.9562C23.0324 19.9562 24.9999 21.9237 24.9999 24.3421C24.9999 24.7056 24.7054 25 24.342 25Z"/>
<path d="M3.72796 8.51319C3.36454 8.51319 3.07007 8.21872 3.07007 7.8553V4.60523C3.07007 4.34203 3.22683 4.10431 3.46883 4.00044L6.53858 2.68465C6.87181 2.54245 7.25943 2.69643 7.40249 3.03031C7.54556 3.36418 7.39093 3.75095 7.05684 3.89422L4.38586 5.03911V7.8553C4.38586 8.21872 4.09139 8.51319 3.72796 8.51319Z"/>
<path d="M21.2721 8.51319C20.9086 8.51319 20.6142 8.21872 20.6142 7.8553V5.03911L17.9432 3.89422C17.6091 3.75095 17.4545 3.36418 17.5975 3.0303C17.7412 2.69643 18.1291 2.54245 18.4614 2.68465L21.5312 4.00044C21.7732 4.10431 21.9299 4.34202 21.9299 4.60523V7.8553C21.9299 8.21872 21.6355 8.51319 21.2721 8.51319Z"/>
<path d="M14.8027 19.3734C15.6691 18.6902 16.2281 17.6338 16.2281 16.4473C16.2281 14.3916 14.5557 12.7192 12.5 12.7192C10.4443 12.7192 8.77196 14.3916 8.77196 16.4473C8.77196 17.6338 9.331 18.6902 10.1974 19.3734C8.32301 20.2458 7.01758 22.142 7.01758 24.342C7.01758 24.7055 7.31205 24.9999 7.67547 24.9999H17.3246C17.688 24.9999 17.9825 24.7055 17.9825 24.342C17.9825 22.142 16.6771 20.2458 14.8027 19.3734Z"/>
</svg>
