<svg width="26" height="26" viewBox="0 0 26 26" fill="none" xmlns="http://www.w3.org/2000/svg">
<path d="M24.8585 23.1467H26V26.0004H23.1463V24.859H24.8585V23.1467H24.8585ZM6.91204 26.0004H10.9711V24.859H6.91204V26.0004ZM15.0294 26.0004H19.0877V24.859H15.0294V26.0004ZM1.14148 23.1467H0V26.0004H2.85369V24.859H1.14148V23.1467ZM1.14148 15.0294H0V19.088H1.14148V15.0294ZM1.14148 6.91235H0V10.971H1.14148V6.91235ZM0 2.85369H1.14148V1.14148H2.85369V0H0V2.85369ZM10.9707 0H6.91204V1.14148H10.9707V0ZM19.0877 0H15.0294V1.14148H19.0877V0ZM23.1464 0V1.14148H24.8585V2.85369H26V0H23.1464ZM24.8585 19.088H26V15.0294H24.8585V19.088ZM24.8585 10.971H26V6.91235H24.8585V10.971ZM20.4588 5.85807C19.7379 5.1374 18.5697 5.1374 17.8488 5.85807L12.9998 10.7067L8.15121 5.85807C7.42978 5.1374 6.26178 5.1374 5.54105 5.85807C4.81963 6.57911 4.81963 7.74787 5.54105 8.46892L10.389 13.3171L5.54067 18.1654C4.81925 18.887 4.81925 20.0552 5.54067 20.7761C5.90088 21.1365 6.37317 21.317 6.84584 21.317C7.31833 21.317 7.79056 21.1365 8.15121 20.7761L12.9998 15.9278L17.8484 20.7761C18.2085 21.1365 18.6811 21.317 19.1538 21.317C19.6261 21.317 20.0983 21.1365 20.4588 20.7761C21.1804 20.0552 21.1804 18.8863 20.4588 18.1654L15.6105 13.3171L20.4588 8.46892C21.18 7.7475 21.18 6.57905 20.4588 5.85807Z" fill="#D03300"/>
</svg>
