<svg width="30" height="28" viewBox="0 0 30 28" fill="none" xmlns="http://www.w3.org/2000/svg">
<path d="M10.9151 19.0556H8.79045C6.81371 19.0556 5.82533 19.0556 5.02109 19.3043C3.21029 19.8644 1.79327 21.3096 1.24397 23.1562C1 23.9763 1 24.9841 1 27M18.7056 7.5C18.7056 11.0898 15.8519 14 12.3316 14C8.8113 14 5.95756 11.0898 5.95756 7.5C5.95756 3.91015 8.8113 1 12.3316 1C15.8519 1 18.7056 3.91015 18.7056 7.5ZM13.748 27L18.141 25.7201C18.3513 25.6588 18.4564 25.6281 18.5546 25.5821C18.6417 25.5414 18.7245 25.4917 18.8017 25.4339C18.8887 25.3688 18.966 25.2899 19.1209 25.132L28.2666 15.8056C29.2445 14.8085 29.2445 13.1915 28.2666 12.1944C27.2888 11.1972 25.7034 11.1972 24.7255 12.1944L15.5798 21.5209C15.4249 21.6788 15.3476 21.7577 15.2837 21.8464C15.2271 21.9251 15.1783 22.0096 15.1384 22.0984C15.0932 22.1985 15.0632 22.3057 15.0031 22.5203L13.748 27Z" stroke="#AB39CF" stroke-width="2" stroke-linecap="round" stroke-linejoin="round"/>
</svg>
