<svg width="26" height="26" viewBox="0 0 26 26" fill="none" xmlns="http://www.w3.org/2000/svg">
<path d="M13.065 7.63965C12.362 7.63965 11.79 8.21391 11.79 8.91975C11.79 9.62558 12.362 10.1998 13.065 10.1998C13.7678 10.1998 14.3395 9.62607 14.3401 8.92073V8.91882C14.3395 8.21342 13.7678 7.63965 13.065 7.63965Z" fill="black"/>
<path d="M0.666992 12.1701V24.7858L9.06435 18.5952L0.666992 12.1701Z" fill="black"/>
<path d="M2.24233 8.98859L0.976562 10.5653L2.24233 11.5337V8.98859Z" fill="black"/>
<path d="M22.6735 12.7501V1.26284C22.6735 0.84152 22.3333 0.5 21.9137 0.5H4.50298C4.08335 0.5 3.74316 0.84152 3.74316 1.26284V12.7483L13.2096 19.9913L22.6735 12.7501ZM7.13765 8.8448C7.13765 5.48426 9.86094 2.75025 13.2083 2.75025C16.5558 2.75025 19.2791 5.48426 19.2791 8.8448V9.31593C19.2791 10.6716 18.1805 11.7746 16.8301 11.7746C16.1151 11.7746 15.4708 11.4653 15.0227 10.9731C14.5289 11.461 13.852 11.7627 13.106 11.7627C11.5983 11.7627 10.3717 10.5314 10.3717 9.01775C10.3717 7.50417 11.5983 6.2727 13.106 6.2727C13.6265 6.2727 14.1134 6.41956 14.528 6.67402C14.6611 6.49642 14.8722 6.38108 15.1106 6.38108C15.5136 6.38108 15.8403 6.70902 15.8403 7.11358V9.01676V9.0177C15.8403 9.0177 15.8403 9.01833 15.8403 9.01863V9.31583C15.8403 9.86373 16.2843 10.3095 16.8301 10.3095C17.3758 10.3095 17.8199 9.86378 17.8199 9.31583V8.84471C17.8199 6.29196 15.7512 4.2151 13.2084 4.2151C10.6656 4.2151 8.59687 6.29191 8.59687 8.84471C8.59687 11.3988 10.6667 13.4768 13.2109 13.4768C13.6138 13.4768 13.9405 13.8047 13.9405 14.2093C13.9405 14.6138 13.6139 14.9418 13.2109 14.9418C9.86206 14.9418 7.13765 12.2067 7.13765 8.8448Z" fill="black"/>
<path d="M24.0908 8.98859V11.5356L25.3575 10.5664L24.0908 8.98859Z" fill="black"/>
<path d="M17.4453 18.4627L25.6671 24.755V12.172L17.4453 18.4627Z" fill="black"/>
<path d="M13.61 21.3968C13.4793 21.4967 13.3235 21.5467 13.1677 21.5467C13.0119 21.5467 12.8561 21.4967 12.7255 21.3968L10.2736 19.5208L2.16309 25.5H24.2331L16.2411 19.3837L13.61 21.3968Z" fill="black"/>
</svg>
