<svg width="20" height="20" viewBox="0 0 20 20" fill="none" xmlns="http://www.w3.org/2000/svg">
<path d="M11.6667 0V8.33325H20V0H11.6667ZM18.3332 5H16.6667V6.66675H15V5H13.3332V3.33325H15V1.6665H16.6667V3.33325H18.3332V5Z" fill="white"/>
<path d="M10 10V5H0V20H18.3333V10H10ZM5.83325 8.33325C6.753 8.33325 7.5 9.0805 7.5 10C7.5 10.9212 6.753 11.6667 5.83325 11.6667C4.91375 11.6667 4.16675 10.9212 4.16675 10C4.16675 9.0805 4.91375 8.33325 5.83325 8.33325ZM9.16675 16.6667H2.5V15C2.5 14.0837 3.25025 13.3332 4.16675 13.3332H7.5C8.41625 13.3332 9.16675 14.0837 9.16675 15V16.6667ZM15.8333 16.6667H11.6667V15H15.8333V16.6667ZM15.8333 13.3332H11.6667V11.6667H15.8333V13.3332Z" fill="white"/>
</svg>
