<svg width="316" height="100" viewBox="0 0 316 100" fill="none" xmlns="http://www.w3.org/2000/svg">
<path d="M35.0585 46.4328C35.4508 46.6826 35.7737 47.0274 35.9975 47.4351C36.2212 47.8429 36.3385 48.3005 36.3385 48.7656C36.3385 49.2307 36.2212 49.6883 35.9975 50.096C35.7737 50.5038 35.4508 50.8485 35.0585 51.0984L4.25158 70.7192C2.41038 71.8918 -2.28882e-05 70.569 -2.28882e-05 68.3863V29.1442C-2.28882e-05 26.9612 2.41038 25.6387 4.25158 26.8117L35.0585 46.4328Z" fill="white"/>
<path d="M48.4827 56.3166C48.8715 56.5672 49.1912 56.9113 49.4126 57.3174C49.6341 57.7235 49.7501 58.1787 49.7501 58.6413C49.7501 59.1038 49.6341 59.559 49.4126 59.9651C49.1912 60.3713 48.8715 60.7154 48.4827 60.966L18.0932 80.5543C16.2528 81.7408 13.829 80.4195 13.829 78.2297V39.053C13.829 36.8633 16.2528 35.5419 18.0932 36.7282L48.4827 56.3166Z" fill="white"/>
<path d="M48.4827 36.034C48.8715 36.2846 49.1912 36.6287 49.4126 37.0348C49.6341 37.4409 49.7501 37.8961 49.7501 38.3587C49.7501 38.8212 49.6341 39.2764 49.4126 39.6825C49.1912 40.0887 48.8715 40.4328 48.4827 40.6834L18.0932 60.2717C16.2528 61.4582 13.829 60.1369 13.829 57.9471V18.7704C13.829 16.5807 16.2528 15.2593 18.0932 16.4456L48.4827 36.034Z" fill="white"/>
<path d="M36.4164 48.5048L13.8353 64.6338L13.8268 32.9023L36.4164 48.5048Z" fill="#FF5822"/>
<path d="M84.402 53.81C84.402 59.228 78.69 62.63 73.482 62.63C68.484 62.63 62.226 59.732 62.226 53.138V43.226C62.226 36.632 68.484 33.734 73.482 33.734C78.69 33.734 83.856 36.38 84.402 41.714C84.402 42.722 84.066 42.932 83.1 42.932H79.068C78.186 42.932 78.144 42.134 77.808 41.63C76.926 40.244 75.75 39.614 73.482 39.614C70.71 39.614 68.82 41.168 68.82 43.814V52.55C68.82 55.238 70.71 56.75 73.482 56.75C75.75 56.75 77.556 55.91 77.892 53.894C78.018 53.054 78.102 52.382 79.026 52.382H83.142C84.066 52.382 84.402 52.802 84.402 53.81ZM110.687 34.364C111.485 34.364 111.569 35.078 111.359 35.54L102.707 51.626V60.782C102.707 61.748 102.245 62 101.489 62H97.2891C96.4911 62 96.0711 61.748 96.0711 60.782V51.626L87.0831 35.54C86.8731 35.078 86.9571 34.364 87.7551 34.364H92.5851C93.5511 34.364 93.9711 34.49 94.5591 35.624L99.4731 44.654L104.219 35.624C104.765 34.49 105.185 34.364 106.151 34.364H110.687ZM134.691 47.678C135.027 47.804 138.555 49.4 138.555 53.936C138.555 59.27 134.397 62 128.559 62H116.211C115.245 62 114.993 61.538 114.993 60.782V35.54C114.993 34.784 115.245 34.322 116.211 34.322H127.971C134.817 34.322 137.757 37.976 137.757 41.924C137.757 46.166 135.069 47.51 134.691 47.678ZM128.643 56.036C130.701 56.036 131.877 55.196 131.877 53.306C131.877 51.332 130.407 50.744 128.391 50.744H127.425C126.459 50.744 126.207 50.282 126.207 49.526V46.334C126.207 45.578 126.459 45.116 127.425 45.116H127.971C130.407 45.116 131.457 44.234 131.457 42.596C131.457 40.706 130.155 40.244 127.971 40.244H121.587V56.036H128.643ZM163.861 56.12C164.827 56.12 165.079 56.582 165.079 57.338V60.782C165.079 61.538 164.827 62 163.861 62H145.045C144.079 62 143.827 61.538 143.827 60.782V35.582C143.827 34.826 144.079 34.364 145.045 34.364H163.147C164.113 34.364 164.365 34.826 164.365 35.582V39.068C164.365 39.824 164.113 40.286 163.147 40.286H150.463V44.864H161.719C162.685 44.864 162.937 45.326 162.937 46.082V49.358C162.937 50.114 162.685 50.576 161.719 50.576H150.463V56.12H163.861ZM192.797 60.656C193.175 61.244 192.965 62 192.167 62H187.211C186.203 62 185.699 61.622 185.111 60.74L180.575 53.978C180.197 53.474 180.113 53.012 180.113 51.836V48.476C180.113 47.72 180.365 47.258 181.331 47.258H182.171C184.229 47.258 186.161 45.83 186.161 43.856C186.161 41.672 184.481 40.286 182.297 40.286H176.711V60.782C176.711 61.748 176.249 62 175.493 62H171.335C170.579 62 170.159 61.748 170.159 60.782V35.624C170.159 34.868 170.369 34.406 171.335 34.406H181.919C186.497 34.406 188.513 35.33 190.277 37.094C191.831 38.606 192.713 41 192.713 43.688C192.713 48.098 189.479 51.164 186.875 52.046L192.797 60.656ZM219.845 53.138C219.845 59.774 213.545 62.63 208.547 62.63C203.549 62.63 197.333 59.774 197.333 53.138V43.226C197.333 36.59 203.549 33.734 208.547 33.734C213.545 33.734 219.845 36.59 219.845 43.226V53.138ZM213.251 43.814C213.251 41.126 211.319 39.572 208.547 39.572C205.817 39.572 203.885 41.126 203.885 43.814V52.55C203.885 55.238 205.817 56.792 208.547 56.792C211.319 56.792 213.251 55.238 213.251 52.55V43.814ZM243.892 56.12C244.858 56.12 245.11 56.582 245.11 57.338V60.782C245.11 61.538 244.858 62 243.892 62H226.42C225.454 62 225.202 61.538 225.202 60.782V35.582C225.202 34.616 225.664 34.364 226.42 34.364H230.578C231.334 34.364 231.796 34.616 231.796 35.582V56.12H243.892ZM268.337 56.12C269.303 56.12 269.555 56.582 269.555 57.338V60.782C269.555 61.538 269.303 62 268.337 62H250.865C249.899 62 249.647 61.538 249.647 60.782V35.582C249.647 34.616 250.109 34.364 250.865 34.364H255.023C255.779 34.364 256.241 34.616 256.241 35.582V56.12H268.337ZM286.104 56.246C287.07 56.246 287.322 56.708 287.322 57.464V60.782C287.322 61.538 287.07 62 286.104 62H274.218C273.252 62 273 61.538 273 60.782V57.464C273 56.708 273.252 56.246 274.218 56.246H276.864V40.202H274.302C273.336 40.202 273.084 39.74 273.084 38.984V35.582C273.084 34.826 273.336 34.364 274.302 34.364H285.978C286.944 34.364 287.196 34.826 287.196 35.582V38.984C287.196 39.74 286.944 40.202 285.978 40.202H283.458V56.246H286.104ZM312.788 56.12C313.754 56.12 314.006 56.582 314.006 57.338V60.782C314.006 61.538 313.754 62 312.788 62H293.972C293.006 62 292.754 61.538 292.754 60.782V35.582C292.754 34.826 293.006 34.364 293.972 34.364H312.074C313.04 34.364 313.292 34.826 313.292 35.582V39.068C313.292 39.824 313.04 40.286 312.074 40.286H299.39V44.864H310.646C311.612 44.864 311.864 45.326 311.864 46.082V49.358C311.864 50.114 311.612 50.576 310.646 50.576H299.39V56.12H312.788Z" fill="white"/>
</svg>
