<svg width="25" height="25" viewBox="0 0 25 25" fill="none" xmlns="http://www.w3.org/2000/svg">
<path d="M24.477 21.952L19.4377 16.9127C20.6859 15.1608 21.4288 13.0251 21.4288 10.7144C21.4288 4.80629 16.6225 0 10.7144 0C4.80629 0 0 4.80629 0 10.7144C0 16.6225 4.80629 21.4288 10.7144 21.4288C13.0251 21.4288 15.1608 20.6868 16.9127 19.4377L21.952 24.477C22.6484 25.1743 23.7806 25.1743 24.477 24.477C25.1743 23.7797 25.1743 22.6493 24.477 21.952ZM10.7144 19.643C5.79112 19.643 1.78573 15.6376 1.78573 10.7144C1.78573 5.79112 5.79112 1.78573 10.7144 1.78573C15.6376 1.78573 19.643 5.79112 19.643 10.7144C19.643 15.6376 15.6376 19.643 10.7144 19.643Z" />
<path d="M16.9645 10.7144V13.8394C16.9645 14.5787 16.3645 15.1787 15.6252 15.1787H5.80365C5.06436 15.1787 4.46436 14.5787 4.46436 13.8394V10.7144H16.9645Z" />
<path d="M15.6252 6.25001H13.393V4.68749C13.393 4.07142 12.893 3.57141 12.2769 3.57141H9.1519C8.53582 3.57141 8.03582 4.07142 8.03582 4.68749V6.25001H5.80365C5.06436 6.25001 4.46436 6.85001 4.46436 7.5893V9.37503H16.9645V7.5893C16.9645 6.85001 16.3645 6.25001 15.6252 6.25001ZM9.37511 4.91071H12.0537V6.25001H9.37511V4.91071Z" />
</svg>
