<svg width="25" height="25" viewBox="0 0 25 25" fill="none" xmlns="http://www.w3.org/2000/svg">
<path d="M22.8027 4.02832V7.8125H24.2676C24.6721 7.8125 25 7.48457 25 7.08008V4.02832C25 3.42158 24.5081 2.92969 23.9014 2.92969C23.2946 2.92969 22.8027 3.42158 22.8027 4.02832Z" />
<path d="M12.0605 12.2559H10.1074C8.70884 12.2559 7.55654 13.3304 7.43286 14.6973H14.7351C14.6114 13.3304 13.4591 12.2559 12.0605 12.2559Z" />
<path d="M11.084 10.791C12.0278 10.791 12.793 10.0259 12.793 9.08203C12.793 8.13819 12.0278 7.37305 11.084 7.37305C10.1401 7.37305 9.375 8.13819 9.375 9.08203C9.375 10.0259 10.1401 10.791 11.084 10.791Z" />
<path d="M0 7.08008V24.2676C0 24.6721 0.32793 25 0.732422 25H2.29492V4.88281H2.19727C0.985693 4.88281 0 5.86851 0 7.08008Z" />
<path d="M16.2109 2.19727C16.2109 1.79341 16.5395 1.46484 16.9434 1.46484C17.3472 1.46484 17.6758 1.79341 17.6758 2.19727V2.92969H19.1406V2.19727C19.1406 0.985693 18.1549 0 16.9434 0C15.7318 0 14.7461 0.985693 14.7461 2.19727V2.92969H16.2109V2.19727Z" />
<path d="M3.75977 25H20.6055C21.01 25 21.3379 24.6721 21.3379 24.2676V4.02832C21.3379 3.63535 21.427 3.26289 21.5857 2.92969H16.2109V6.5918C16.2109 6.99565 16.5395 7.32422 16.9434 7.32422C17.3472 7.32422 17.6758 6.99565 17.6758 6.5918C17.6758 6.1873 18.0037 5.85938 18.4082 5.85938C18.8127 5.85938 19.1406 6.1873 19.1406 6.5918C19.1406 7.80337 18.1549 8.78906 16.9434 8.78906C15.7318 8.78906 14.7461 7.80337 14.7461 6.5918V2.92969H5.95703C4.74351 2.92969 3.75977 3.91343 3.75977 5.12695V25ZM5.95703 14.9414C5.95703 13.1797 7.06089 11.6718 8.61284 11.0705C8.17378 10.526 7.91016 9.83437 7.91016 9.08203C7.91016 7.33198 9.33394 5.9082 11.084 5.9082C12.834 5.9082 14.2578 7.33198 14.2578 9.08203C14.2578 9.83437 13.9942 10.526 13.5551 11.0705C15.1071 11.6718 16.2109 13.1797 16.2109 14.9414V15.4297C16.2109 15.8342 15.883 16.1621 15.4785 16.1621H6.68945C6.28496 16.1621 5.95703 15.8342 5.95703 15.4297V14.9414ZM18.4082 22.0215H6.68945C6.28496 22.0215 5.95703 21.6936 5.95703 21.2891C5.95703 20.8846 6.28496 20.5566 6.68945 20.5566H18.4082C18.8127 20.5566 19.1406 20.8846 19.1406 21.2891C19.1406 21.6936 18.8127 22.0215 18.4082 22.0215ZM18.4082 19.0918H6.68945C6.28496 19.0918 5.95703 18.7639 5.95703 18.3594C5.95703 17.9549 6.28496 17.627 6.68945 17.627H18.4082C18.8127 17.627 19.1406 17.9549 19.1406 18.3594C19.1406 18.7639 18.8127 19.0918 18.4082 19.0918Z" />
</svg>
